<mxfile host="app.diagrams.net" modified="2023-06-22T18:43:20.793Z" agent="Mozilla/5.0 (X11; CrOS x86_64 15183.90.16) AppleWebKit/537.36 (KHTML, like Gecko) Chrome/108.0.0.0 Safari/537.36" version="21.5.0" etag="fU9NeJl080BJAKFWVtig" type="github">
  <diagram name="Page-1" id="IFwZsp1LCMtRQclVoAp7">
    <mxGraphModel>
      <root>
        <mxCell id="0" />
        <mxCell id="1" parent="0" />
      </root>
    </mxGraphModel>
  </diagram>
</mxfile>
